HIERARCHY
ROOT Hips
{
	OFFSET 0.000000 0.000000 0.000000
	CHANNELS 6 Xposition Yposition Zposition Zrotation Yrotation Xrotation 
	JOINT LHipJoint
	{
		OFFSET 0.000000 0.000000 0.000000
		CHANNELS 3 Zrotation Yrotation Xrotation
		JOINT LeftUpLeg
		{
			OFFSET 1.363060 -1.794630 0.839290
			CHANNELS 3 Zrotation Yrotation Xrotation
			JOINT LeftLeg
			{
				OFFSET 2.448110 -6.726130 0.000000
				CHANNELS 3 Zrotation Yrotation Xrotation
				JOINT LeftFoot
				{
					OFFSET 2.562200 -7.039590 0.000000
					CHANNELS 3 Zrotation Yrotation Xrotation
					JOINT LeftToeBase
					{
						OFFSET 0.157640 -0.433110 2.322550
						CHANNELS 3 Zrotation Yrotation Xrotation
						End Site
						{
							OFFSET 0.000000 0.000000 0.000000
						}
					}
				}
			}
		}
	}
	JOINT RHipJoint
	{
		OFFSET 0.000000 0.000000 0.000000
		CHANNELS 3 Zrotation Yrotation Xrotation
		JOINT RightUpLeg
		{
			OFFSET -1.305520 -1.794630 0.839290
			CHANNELS 3 Zrotation Yrotation Xrotation
			JOINT RightLeg
			{
				OFFSET -2.542530 -6.985550 0.000000
				CHANNELS 3 Zrotation Yrotation Xrotation
				JOINT RightFoot
				{
					OFFSET -2.568260 -7.056230 0.000000
					CHANNELS 3 Zrotation Yrotation Xrotation
					JOINT RightToeBase
					{
						OFFSET -0.164730 -0.452590 2.363150
						CHANNELS 3 Zrotation Yrotation Xrotation
						End Site
						{
							OFFSET 0.000000 0.000000 0.000000
						}
					}
				}
			}
		}
	}
	JOINT LowerBack
	{
		OFFSET 0.000000 0.000000 0.000000
		CHANNELS 3 Zrotation Yrotation Xrotation
		JOINT Spine
		{
			OFFSET 0.028270 2.035590 -0.193380
			CHANNELS 3 Zrotation Yrotation Xrotation
			JOINT Spine1
			{
				OFFSET 0.056720 2.048850 -0.042750
				CHANNELS 3 Zrotation Yrotation Xrotation
				JOINT Neck
				{
					OFFSET 0.000000 0.000000 0.000000
					CHANNELS 3 Zrotation Yrotation Xrotation
					JOINT Neck1
					{
						OFFSET -0.054170 1.746240 0.172020
						CHANNELS 3 Zrotation Yrotation Xrotation
						JOINT Head
						{
							OFFSET 0.104070 1.761360 -0.123970
							CHANNELS 3 Zrotation Yrotation Xrotation
							End Site
							{
								OFFSET 0.000000 0.000000 0.000000
							}
						}
					}
				}
				JOINT LeftShoulder
				{
					OFFSET 0.000000 0.000000 0.000000
					CHANNELS 3 Zrotation Yrotation Xrotation
					JOINT LeftArm
					{
						OFFSET 3.362410 1.200890 -0.311210
						CHANNELS 3 Zrotation Yrotation Xrotation
						JOINT LeftForeArm
						{
							OFFSET 4.983000 -0.000000 -0.000000
							CHANNELS 3 Zrotation Yrotation Xrotation
							JOINT LeftHand
							{
								OFFSET 3.483560 -0.000000 -0.000000
								CHANNELS 3 Zrotation Yrotation Xrotation
								JOINT LeftFingerBase
								{
									OFFSET 0.000000 0.000000 0.000000
									CHANNELS 3 Zrotation Yrotation Xrotation
									JOINT LeftHandIndex1
									{
										OFFSET 0.715260 -0.000000 -0.000000
										CHANNELS 3 Zrotation Yrotation Xrotation
										End Site
										{
											OFFSET 0.000000 0.000000 0.000000
										}
									}
								}
								JOINT LThumb
								{
									OFFSET 0.000000 0.000000 0.000000
									CHANNELS 3 Zrotation Yrotation Xrotation
									End Site
									{
										OFFSET 0.000000 0.000000 0.000000
									}
								}
							}
						}
					}
				}
				JOINT RightShoulder
				{
					OFFSET 0.000000 0.000000 0.000000
					CHANNELS 3 Zrotation Yrotation Xrotation
					JOINT RightArm
					{
						OFFSET -3.136600 1.374050 -0.404650
						CHANNELS 3 Zrotation Yrotation Xrotation
						JOINT RightForeArm
						{
							OFFSET -5.241900 -0.000000 -0.000000
							CHANNELS 3 Zrotation Yrotation Xrotation
							JOINT RightHand
							{
								OFFSET -3.444170 -0.000000 -0.000000
								CHANNELS 3 Zrotation Yrotation Xrotation
								JOINT RightFingerBase
								{
									OFFSET 0.000000 0.000000 0.000000
									CHANNELS 3 Zrotation Yrotation Xrotation
									JOINT RightHandIndex1
									{
										OFFSET -0.622530 -0.000000 -0.000000
										CHANNELS 3 Zrotation Yrotation Xrotation
										End Site
										{
											OFFSET 0.000000 0.000000 0.000000
										}
									}
								}
								JOINT RThumb
								{
									OFFSET 0.000000 0.000000 0.000000
									CHANNELS 3 Zrotation Yrotation Xrotation
									End Site
									{
										OFFSET 0.000000 0.000000 0.000000
									}
								}
							}
						}
					}
				}
			}
		}
	}
}
MOTION
Frames: 6
Frame Time: 0.008333
5.182849 17.351719 0.581145 4.284656 -61.640764 3.676686 -10.101625 1.715916 3.055602 -6.339120 -0.849770 -9.820958 -2.699089 -1.169330 -3.769729 -0.610161 -4.632351 7.277418 -0.640200 0.000000 -31.685000 10.286507 -2.057965 -0.753435 5.940672 -14.005361 -2.161483 1.270144 1.365787 -3.444762 -2.849328 -18.460293 -4.371351 -2.983400 0.000000 -26.956500 -4.312204 1.163870 -2.165325 -1.632731 1.466034 -4.308222 -4.475782 1.481235 -5.027054 5.678884 7.367033 3.473367 -1.929004 -0.300086 3.016575 0.000000 0.000000 0.000000 3.878559 -2.293363 -6.298147 -71.722644 -72.103323 0.555050 175.521898 -64.673386 179.508932 27.485793 -17.225424 -4.630007 -0.289206 1.309072 -0.000000 0.000000 0.000000 0.000000 0.000000 0.000000 0.000000 2.979753 10.310501 2.489656 71.447347 28.185172 -1.888217 1.278753 25.095488 0.005370 1.496559 -2.181270 -0.025703 0.003260 -0.187772 -0.000000 0.000000 0.000000 0.000000 0.000000 0.000000 0.000000 
5.187301 17.351590 0.588781 4.199746 -61.922844 3.741883 -10.135836 1.739837 3.036769 -6.311337 -0.552721 -9.842257 -2.698493 -1.168192 -3.810538 -0.609551 -4.722651 7.241653 -0.663301 0.000000 -31.769800 10.259771 -2.061436 -0.708808 5.979348 -13.908334 -2.147481 1.286128 1.387347 -3.566667 -2.865101 -18.338903 -4.224950 -2.964200 0.000000 -27.083900 -4.092278 1.076604 -2.251029 -1.609939 1.359562 -4.310727 -4.592922 1.377900 -4.984882 5.949449 6.790675 3.438956 -2.008111 -0.304059 3.008318 0.000000 0.000000 0.000000 4.138883 -2.355960 -6.270738 -70.757929 -71.781548 -0.425982 175.474428 -64.107150 179.505141 27.820397 -17.338375 -4.720974 -0.304402 1.315719 -0.000000 0.000000 0.000000 0.000000 0.000000 0.000000 0.000000 3.450269 9.607254 2.335422 72.039094 27.616657 -0.464958 1.151299 27.279934 0.004806 1.272783 -2.632160 -0.026895 -0.001426 -0.186161 -0.000000 0.000000 0.000000 0.000000 0.000000 0.000000 0.000000 
5.192004 17.352812 0.597749 4.130402 -62.313952 3.806285 -10.173060 1.765501 3.010470 -6.298699 -0.187862 -9.967962 -2.696555 -1.159656 -3.675580 -0.598551 -4.783899 7.107475 -0.680300 -0.000000 -31.815399 10.230492 -2.066295 -0.641516 6.014437 -13.751849 -2.171858 1.304441 1.410231 -3.685652 -2.870488 -18.178305 -4.056220 -2.949400 0.000000 -27.210100 -3.861962 0.985219 -2.360732 -1.574075 1.249144 -4.315678 -4.663006 1.270904 -4.936224 6.144803 6.265188 3.416230 -2.052400 -0.306436 3.004542 0.000000 0.000000 0.000000 4.358587 -2.347398 -6.248885 -69.845719 -71.494861 -1.345805 175.432273 -63.580821 179.503120 28.020748 -17.379541 -4.769437 -0.315770 1.320262 -0.000000 0.000000 0.000000 0.000000 0.000000 0.000000 0.000000 3.688987 8.969993 2.150141 72.557056 27.164893 1.022379 1.003472 29.583143 0.003809 0.893369 -2.950621 -0.021388 -0.005231 -0.187320 -0.000000 0.000000 0.000000 0.000000 0.000000 0.000000 0.000000 
5.196910 17.355082 0.607780 4.077446 -62.807658 3.866693 -10.213263 1.795254 2.980277 -6.298255 0.237572 -10.103682 -2.695712 -1.152819 -3.553717 -0.585407 -4.812371 6.979365 -0.690000 -0.000000 -31.825600 10.199182 -2.072011 -0.554141 6.044345 -13.536843 -2.231244 1.324571 1.433665 -3.797362 -2.865135 -17.982139 -3.873989 -2.937700 -0.000000 -27.334600 -3.625411 0.889037 -2.492531 -1.528057 1.134182 -4.323542 -4.695589 1.159543 -4.884321 6.281654 5.793821 3.412210 -2.068130 -0.307618 3.006787 0.000000 0.000000 0.000000 4.540492 -2.267771 -6.230171 -68.991449 -71.250827 -2.195454 175.398800 -63.107836 179.502875 28.080008 -17.349823 -4.773794 -0.323157 1.322835 -0.000000 0.000000 0.000000 0.000000 0.000000 0.000000 0.000000 3.740857 8.398354 1.931301 72.999077 26.832466 2.516982 0.832779 32.010770 0.002204 0.333943 -3.046290 -0.008182 -0.008420 -0.192489 -0.000000 0.000000 0.000000 0.000000 0.000000 0.000000 0.000000 
5.201755 17.358007 0.618618 4.043787 -63.396822 3.918996 -10.255279 1.829061 2.947150 -6.308895 0.711625 -10.240697 -2.695892 -1.147947 -3.451422 -0.570736 -4.804746 6.857281 -0.691301 -0.000000 -31.806599 10.166575 -2.078094 -0.449207 6.066883 -13.267294 -2.320718 1.346130 1.457197 -3.897642 -2.848375 -17.752075 -3.686924 -2.927600 0.000000 -27.460900 -3.386015 0.788209 -2.643192 -1.474952 1.014820 -4.334411 -4.701254 1.043918 -4.831926 6.377172 5.374912 3.431860 -2.062676 -0.308036 3.016019 0.000000 0.000000 0.000000 4.690773 -2.121861 -6.212690 -68.191679 -71.052562 -2.977273 175.376061 -62.694609 179.504286 28.004241 -17.255779 -4.736842 -0.326744 1.323700 -0.000000 0.000000 0.000000 0.000000 0.000000 0.000000 0.000000 3.656103 7.884995 1.678144 73.361834 26.626257 3.961102 0.640573 34.562921 -0.000217 -0.405302 -2.855102 0.009426 -0.011305 -0.202604 -0.000000 0.000000 0.000000 0.000000 0.000000 0.000000 0.000000 
5.206653 17.361212 0.629986 4.028076 -64.072399 3.958768 -10.298151 1.866412 2.912122 -6.328778 1.219732 -10.370008 -2.696613 -1.145099 -3.374397 -0.554918 -4.756377 6.740992 -0.682800 0.000001 -31.765701 10.133100 -2.083882 -0.330197 6.080367 -12.949957 -2.435106 1.368965 1.480301 -3.982999 -2.819959 -17.489348 -3.502570 -2.917200 0.000000 -27.595000 -3.145699 0.683166 -2.808759 -1.417531 0.891380 -4.348230 -4.690662 0.924374 -4.782063 6.446867 5.005799 3.478684 -2.043511 -0.308118 3.032840 0.000000 0.000000 0.000000 4.817686 -1.919757 -6.194888 -67.435616 -70.895588 -3.703377 175.365290 -62.344316 179.507135 27.809792 -17.109040 -4.665082 -0.326973 1.323213 -0.000000 0.000000 0.000000 0.000000 0.000000 0.000000 0.000000 3.483399 7.421252 1.391743 73.645004 26.552544 5.294664 0.432121 37.235115 -0.003659 -1.291758 -2.350128 0.024135 -0.014297 -0.218135 -0.000000 0.000000 0.000000 0.000000 0.000000 0.000000 0.000000 
